<svg width="13" height="10" viewBox="0 0 13 10" fill="none" xmlns="http://www.w3.org/2000/svg">
<g id="purple-arrow.svg" clip-path="url(#clip0_6_628)">
<path id="Vector" d="M8.04003 1.6803L7.53222 2.18811C7.43066 2.31507 7.43067 2.4928 7.55761 2.61976L9.58886 4.57483H0.854493C0.676758 4.57483 0.549805 4.72718 0.549805 4.87952V5.59046C0.549805 5.76819 0.676758 5.89515 0.854493 5.89515H9.58886L7.55761 7.87561C7.43067 8.00257 7.43066 8.1803 7.53222 8.30726L8.04003 8.81507C8.16699 8.91663 8.34472 8.91663 8.47168 8.81507L11.8232 5.46351C11.9248 5.33655 11.9248 5.15882 11.8232 5.03187L8.47168 1.6803C8.34472 1.57874 8.16699 1.57874 8.04003 1.6803Z" fill="#7537F6"/>
</g>
<defs>
<clipPath id="clip0_6_628">
<rect width="12" height="9" fill="white" transform="translate(0.549805 0.609985)"/>
</clipPath>
</defs>
</svg>
