<svg width="101" height="101" viewBox="0 0 101 101" fill="none" xmlns="http://www.w3.org/2000/svg">
<g id="feature-lightbulb.svg">
<path id="Vector" d="M49.23 95.25C74.0828 95.25 94.23 75.1028 94.23 50.25C94.23 25.3972 74.0828 5.25 49.23 5.25C24.3772 5.25 4.22998 25.3972 4.22998 50.25C4.22998 75.1028 24.3772 95.25 49.23 95.25Z" fill="white"/>
<path id="Vector_2" d="M48.73 38.75C44.6128 38.8164 41.2925 42.1367 41.2925 46.1875C41.2925 46.7852 41.7573 47.25 42.355 47.25C42.8862 47.25 43.4175 46.7852 43.4175 46.1875C43.4175 43.2656 45.7417 40.9414 48.73 40.875C49.2612 40.875 49.7925 40.4102 49.7925 39.8125C49.7925 39.2812 49.2612 38.75 48.73 38.75ZM48.73 34.5C41.8902 34.5 36.9761 40.0781 37.0425 46.2539C37.0425 49.1758 38.105 51.832 39.898 53.8906C41.6245 55.8164 43.2183 59.0039 43.4175 60V65.0469C43.4175 65.2461 43.4839 65.4453 43.5503 65.6445L45.2105 68.0352C45.4097 68.3672 45.7417 68.5 46.0738 68.5H51.3198C51.6519 68.5 51.9839 68.3672 52.1831 68.0352L53.8433 65.5781C53.9097 65.4453 53.9761 65.2461 53.9761 65.0469L54.0425 60C54.1753 59.0039 55.8355 55.8164 57.4956 53.8906C59.2886 51.832 60.3511 49.1758 60.3511 46.1875C60.3511 39.7461 55.1714 34.5664 48.73 34.5664V34.5ZM51.8511 64.7148L50.7222 66.375H46.6714L45.5425 64.7148V64.25H51.8511V64.7148ZM51.9175 62.125H45.5425L45.4761 60H51.9175V62.125ZM55.9019 52.4961C54.9722 53.5586 53.5112 55.6836 52.5152 57.875H44.8784C43.8823 55.6836 42.4214 53.5586 41.4917 52.4961C40.0308 50.8359 39.1675 48.6445 39.1675 46.2539C39.1675 46.2539 39.1675 46.2539 39.1675 46.1875C39.1011 41.0742 43.1519 36.625 48.73 36.625C53.9761 36.625 58.2925 40.9414 58.2925 46.1875C58.2261 48.6445 57.3628 50.8359 55.9019 52.4961ZM33.855 46.1875C33.855 45.6562 33.3238 45.125 32.7925 45.125H28.5425C27.9448 45.125 27.48 45.6562 27.48 46.1875C27.48 46.7852 27.9448 47.25 28.5425 47.25H32.7925C33.3238 47.25 33.855 46.7852 33.855 46.1875ZM62.5425 38.75C62.6753 38.75 62.8745 38.75 63.0073 38.6836L67.2573 36.5586C67.5894 36.3594 67.855 36.0273 67.855 35.5625C67.855 35.0312 67.3238 34.5 66.7925 34.5C66.5933 34.5 66.3941 34.5664 66.2612 34.6328L62.0112 36.7578C61.6792 36.957 61.4136 37.2891 61.4136 37.7539C61.4136 38.2852 61.9448 38.8164 62.4761 38.8164L62.5425 38.75ZM68.9175 45.125H64.6675C64.0698 45.125 63.605 45.6562 63.605 46.1875C63.605 46.7852 64.0698 47.25 64.6675 47.25H68.9175C69.4488 47.25 69.98 46.7852 69.98 46.1875C69.98 45.6562 69.4488 45.125 68.9175 45.125ZM35.3823 36.7578L31.1323 34.6328C30.9995 34.5664 30.8003 34.5664 30.6675 34.5664C30.0698 34.5664 29.605 35.0312 29.605 35.6289C29.605 36.0273 29.8042 36.3594 30.1362 36.5586L34.3862 38.6836C34.5191 38.75 34.7183 38.75 34.9175 38.75C35.4488 38.75 35.98 38.2852 35.98 37.6875C35.98 37.2891 35.7144 36.957 35.3823 36.7578ZM67.2573 55.8828L63.0073 53.7578C62.8745 53.6914 62.6753 53.6914 62.5425 53.6914C61.9448 53.6914 61.48 54.1562 61.48 54.7539C61.48 55.1523 61.6792 55.4844 62.0112 55.6836L66.2612 57.8086C66.3941 57.875 66.5933 57.9414 66.7261 57.9414C67.3238 57.9414 67.7886 57.4102 67.7886 56.8125C67.7886 56.4141 67.5894 56.082 67.2573 55.8828ZM34.9175 53.625C34.7183 53.6914 34.5191 53.6914 34.3862 53.7578L30.1362 55.8828C29.8042 56.082 29.5386 56.4141 29.5386 56.8789C29.5386 57.4102 30.0698 57.9414 30.6011 57.9414C30.8003 57.9414 30.9995 57.875 31.1323 57.8086L35.3823 55.6836C35.7144 55.4844 35.98 55.1523 35.98 54.6875C35.98 54.1562 35.4488 53.625 34.9175 53.625Z" fill="#716B95"/>
</g>
</svg>
