<svg width="101" height="101" viewBox="0 0 101 101" fill="none" xmlns="http://www.w3.org/2000/svg">
<g id="feature-chat.svg">
<path id="Vector" d="M49.98 95.79C74.8328 95.79 94.98 75.6429 94.98 50.79C94.98 25.9372 74.8328 5.79004 49.98 5.79004C25.1272 5.79004 4.97998 25.9372 4.97998 50.79C4.97998 75.6429 25.1272 95.79 49.98 95.79Z" fill="white"/>
<path id="Vector_2" d="M64.355 45.665H57.98V39.29C57.98 36.9658 56.0542 35.04 53.73 35.04H34.605C32.2144 35.04 30.355 36.9658 30.355 39.29V49.915C30.355 52.3056 32.2144 54.165 34.605 54.165H36.73V57.6181C36.73 58.1494 37.062 58.415 37.5269 58.415C37.6597 58.415 37.7925 58.415 37.9917 58.2822L43.105 55.4267V60.54C43.105 62.9306 44.9644 64.79 47.355 64.79H53.73L60.9019 68.9072C61.1011 69.04 61.2339 69.04 61.4331 69.04C61.8316 69.04 62.23 68.7744 62.23 68.2431V64.79H64.355C66.6792 64.79 68.605 62.9306 68.605 60.54V49.915C68.605 47.5908 66.6792 45.665 64.355 45.665ZM34.605 52.04C33.4097 52.04 32.48 51.1103 32.48 49.915V39.29C32.48 38.1611 33.4097 37.165 34.605 37.165H53.73C54.8589 37.165 55.855 38.1611 55.855 39.29V49.915C55.855 51.1103 54.8589 52.04 53.73 52.04H44.6323L44.1675 52.372L38.855 55.3603V52.04H34.605ZM66.48 60.54C66.48 61.7353 65.4839 62.665 64.355 62.665H60.105V65.9853L54.7261 62.997L54.2612 62.665H47.355C46.1597 62.665 45.23 61.7353 45.23 60.54V54.165H53.73C56.0542 54.165 57.98 52.3056 57.98 49.915V47.79H64.355C65.4839 47.79 66.48 48.7861 66.48 49.915V60.54Z" fill="#716B95"/>
</g>
</svg>
