<svg width="101" height="101" viewBox="0 0 101 101" fill="none" xmlns="http://www.w3.org/2000/svg">
<g id="feature-check.svg">
<path id="Vector" d="M49.73 95.79C74.5828 95.79 94.73 75.6429 94.73 50.79C94.73 25.9372 74.5828 5.79004 49.73 5.79004C24.8772 5.79004 4.72998 25.9372 4.72998 50.79C4.72998 75.6429 24.8772 95.79 49.73 95.79Z" fill="white"/>
<path id="Vector_2" d="M54.6402 47.1923C54.5073 47.1259 54.3745 47.0595 54.2417 47.0595C54.1089 47.0595 53.9761 47.0595 53.9097 47.1923L46.7378 54.2978L43.4839 51.1103C43.4175 50.9775 43.2847 50.9775 43.1519 50.9775C43.0191 50.9775 42.8862 50.9775 42.7534 51.1103L42.023 51.8408C41.8238 52.04 41.8238 52.372 42.023 52.5712L46.3394 56.9541C46.4722 57.0869 46.605 57.0869 46.7378 57.0869C46.8706 57.0869 47.0034 57.0869 47.1362 56.9541L55.3706 48.7197C55.5698 48.4541 55.5698 48.122 55.3706 47.9228L54.6402 47.1923ZM65.73 52.04C65.73 49.7158 64.4019 47.5244 62.4097 46.3955C63.0073 44.1377 62.4097 41.747 60.7495 40.0205C59.023 38.3603 56.6323 37.7627 54.3745 38.3603C53.2456 36.3681 51.0542 35.04 48.73 35.04C46.3394 35.04 44.148 36.3681 43.0191 38.3603C40.7612 37.7627 38.3706 38.3603 36.7105 40.0205C34.9839 41.747 34.3862 44.1377 34.9839 46.3955C32.9917 47.5244 31.73 49.7158 31.73 52.04C31.73 54.4306 32.9917 56.622 34.9839 57.7509C34.3862 60.0088 34.9839 62.3994 36.7105 64.0595C38.437 65.8525 40.8941 66.3838 43.0191 65.7861C44.148 67.7783 46.3394 69.04 48.73 69.04C51.0542 69.04 53.2456 67.7783 54.3745 65.7861C56.5659 66.3838 58.9566 65.8525 60.7495 64.0595C62.4097 62.3994 63.0073 60.0088 62.4097 57.7509C64.4019 56.622 65.73 54.4306 65.73 52.04ZM59.6206 56.622C60.0191 57.4189 61.6128 60.208 59.2222 62.5986C57.2964 64.5244 55.3706 63.9931 53.2456 62.997C52.9136 63.7939 52.1167 66.915 48.73 66.915C45.2105 66.915 44.4136 63.6611 44.148 62.997C42.023 63.9931 40.0972 64.5244 38.1714 62.5986C35.7144 60.1416 37.4409 57.2197 37.773 56.622C36.9761 56.29 33.855 55.4267 33.855 52.04C33.855 48.5869 37.1089 47.79 37.773 47.5244C37.3745 46.7275 35.7808 43.9384 38.1714 41.5478C40.6284 39.0908 43.5503 40.8173 44.148 41.1494C44.48 40.2861 45.3433 37.165 48.73 37.165C52.1831 37.165 52.98 40.4853 53.2456 41.1494C54.0425 40.7509 56.8316 39.1572 59.2222 41.5478C61.6792 44.0048 59.9527 46.9267 59.6206 47.5244C60.4839 47.8564 63.605 48.6533 63.605 52.04C63.605 55.5595 60.2847 56.3564 59.6206 56.622Z" fill="#716B95"/>
</g>
</svg>
