<svg width="42" height="41" viewBox="0 0 42 41" fill="none" xmlns="http://www.w3.org/2000/svg">
<g id="cco-color-icon.svg" clip-path="url(#clip0_4_368)">
<path id="Vector" d="M24.4634 27.3525C24.4634 28.4548 25.3588 29.3483 26.4634 29.3483C27.5679 29.3483 28.4634 28.4548 28.4634 27.3525C28.4634 26.2502 27.5679 25.3567 26.4634 25.3567C25.3588 25.3567 24.4634 26.2502 24.4634 27.3525Z" fill="#F2A735"/>
<path id="Vector_2" d="M36.8481 27.3525C36.8481 28.4548 37.7436 29.3483 38.8481 29.3483C39.9527 29.3483 40.8481 28.4548 40.8481 27.3525C40.8481 26.2502 39.9527 25.3567 38.8481 25.3567C37.7436 25.3567 36.8481 26.2502 36.8481 27.3525Z" fill="#7537F6"/>
<path id="Vector_3" d="M36.8481 14.9943C36.8481 16.0966 37.7436 16.9902 38.8481 16.9902C39.9527 16.9902 40.8481 16.0966 40.8481 14.9943C40.8481 13.8921 39.9527 12.9985 38.8481 12.9985C37.7436 12.9985 36.8481 13.8921 36.8481 14.9943Z" fill="#F34077"/>
<path id="Vector_4" d="M24.4634 2.63521C24.4634 3.73747 25.3588 4.63102 26.4634 4.63102C27.5679 4.63102 28.4634 3.73747 28.4634 2.63521C28.4634 1.53296 27.5679 0.639404 26.4634 0.639404C25.3588 0.639404 24.4634 1.53296 24.4634 2.63521Z" fill="#3CCD92"/>
<path id="Vector_5" d="M12.0786 2.63521C12.0786 3.73747 12.974 4.63102 14.0786 4.63102C15.1832 4.63102 16.0786 3.73747 16.0786 2.63521C16.0786 1.53296 15.1832 0.639404 14.0786 0.639404C12.974 0.639404 12.0786 1.53296 12.0786 2.63521Z" fill="#3CC5F0"/>
<path id="Vector_6" d="M24.4634 14.9943C24.4634 16.0966 25.3588 16.9902 26.4634 16.9902C27.5679 16.9902 28.4634 16.0966 28.4634 14.9943C28.4634 13.8921 27.5679 12.9985 26.4634 12.9985C25.3588 12.9985 24.4634 13.8921 24.4634 14.9943Z" fill="#7537F6"/>
<path id="Vector_7" d="M0.819824 14.9943C0.819824 16.0966 1.71525 16.9902 2.81982 16.9902C3.92439 16.9902 4.81982 16.0966 4.81982 14.9943C4.81982 13.8921 3.92439 12.9985 2.81982 12.9985C1.71525 12.9985 0.819824 13.8921 0.819824 14.9943Z" fill="#7537F6"/>
<path id="Vector_8" d="M12.0786 14.9943C12.0786 16.0966 12.974 16.9902 14.0786 16.9902C15.1832 16.9902 16.0786 16.0966 16.0786 14.9943C16.0786 13.8921 15.1832 12.9985 14.0786 12.9985C12.974 12.9985 12.0786 13.8921 12.0786 14.9943Z" fill="#7537F6"/>
<path id="Vector_9" d="M24.4634 38.5881C24.4634 39.6904 25.3588 40.5839 26.4634 40.5839C27.5679 40.5839 28.4634 39.6904 28.4634 38.5881C28.4634 37.4858 27.5679 36.5923 26.4634 36.5923C25.3588 36.5923 24.4634 37.4858 24.4634 38.5881Z" fill="#7537F6"/>
</g>
<defs>
<clipPath id="clip0_4_368">
<rect width="41" height="40" fill="white" transform="translate(0.819824 0.639404)"/>
</clipPath>
</defs>
</svg>
