<svg width="101" height="101" viewBox="0 0 101 101" fill="none" xmlns="http://www.w3.org/2000/svg">
<g id="feature-connected.svg">
<path id="Vector" d="M49.98 95.25C74.8328 95.25 94.98 75.1028 94.98 50.25C94.98 25.3972 74.8328 5.25 49.98 5.25C25.1272 5.25 4.97998 25.3972 4.97998 50.25C4.97998 75.1028 25.1272 95.25 49.98 95.25Z" fill="white"/>
<path id="Vector_2" d="M62.2964 47.9805L61.0347 46.3203L57.8472 48.7109L59.1089 50.3711L62.2964 47.9805ZM66.48 47.25C67.3433 47.25 68.1402 46.9844 68.8042 46.5859C69.2691 46.2539 69.6675 45.8555 69.9995 45.3906C70.4644 44.7266 70.73 43.9297 70.73 43C70.73 42.1367 70.4644 41.3398 69.9995 40.6758C69.8003 40.4102 69.6675 40.2109 69.4683 40.0117C69.2691 39.8125 69.0698 39.6797 68.8042 39.4805C68.1402 39.0156 67.3433 38.75 66.48 38.75C65.5503 38.75 64.7534 39.0156 64.0894 39.4805C63.6245 39.8125 63.2261 40.2109 62.8941 40.6758C62.4956 41.3398 62.23 42.1367 62.23 43C62.23 45.3906 64.0894 47.25 66.48 47.25ZM66.48 40.875C67.6089 40.875 68.605 41.8711 68.605 43C68.605 44.1953 67.6089 45.125 66.48 45.125C65.2847 45.125 64.355 44.1953 64.355 43C64.355 41.8711 65.2847 40.875 66.48 40.875ZM34.8042 51.168C34.1402 50.7031 33.3433 50.4375 32.48 50.4375C31.5503 50.4375 30.7534 50.7031 30.0894 51.168C29.6245 51.5 29.2261 51.8984 28.8941 52.3633C28.4956 53.0273 28.23 53.8242 28.23 54.6875C28.23 57.0781 30.0894 58.9375 32.48 58.9375C34.8042 58.9375 36.73 57.0781 36.73 54.6875C36.73 53.8242 36.4644 53.0273 35.9995 52.3633C35.6675 51.8984 35.2691 51.5 34.8042 51.168ZM32.48 56.8125C31.2847 56.8125 30.355 55.8828 30.355 54.6875C30.355 53.5586 31.2847 52.5625 32.48 52.5625C33.6089 52.5625 34.605 53.5586 34.605 54.6875C34.605 55.8828 33.6089 56.8125 32.48 56.8125ZM38.3238 55.75H41.5112V53.625H38.3238V55.75ZM69.4683 61.2617C69.2691 61.0625 69.0698 60.9297 68.8042 60.7305C68.1402 60.2656 67.3433 60 66.48 60C65.5503 60 64.7534 60.2656 64.0894 60.7305C63.8238 60.9297 63.6245 61.0625 63.4917 61.2617L57.3823 57.6094C57.7144 56.6797 57.98 55.75 57.98 54.6875C57.98 50.6367 54.5933 47.25 50.5425 47.25C49.7456 47.25 49.0816 47.4492 48.3511 47.6484L45.7612 42.0703C46.6909 41.2734 47.355 40.0781 47.355 38.75C47.355 37.8867 47.0894 37.0898 46.6245 36.4258C46.2925 35.9609 45.8941 35.5625 45.4292 35.2305C44.7652 34.7656 43.9683 34.5 43.105 34.5C42.1753 34.5 41.3784 34.7656 40.7144 35.2305C40.2495 35.5625 39.8511 35.9609 39.5191 36.4258C39.1206 37.0898 38.855 37.8867 38.855 38.75C38.855 41.1406 40.7144 43 43.105 43C43.3706 43 43.5698 43 43.8355 42.9336L46.4253 48.5117C44.4331 49.8398 43.105 52.0977 43.105 54.6875C43.105 58.8047 46.4253 62.125 50.5425 62.125C52.8667 62.125 54.8589 61.0625 56.2534 59.4023L62.3628 63.0547C62.2964 63.4531 62.23 63.8516 62.23 64.25C62.23 66.6406 64.0894 68.5 66.48 68.5C67.3433 68.5 68.1402 68.2344 68.8042 67.8359C69.2691 67.5039 69.6675 67.1055 69.9995 66.6406C70.4644 65.9766 70.73 65.1797 70.73 64.25C70.73 63.3867 70.4644 62.5898 69.9995 61.9258C69.8003 61.6602 69.6675 61.4609 69.4683 61.2617ZM43.105 40.875C41.9097 40.875 40.98 39.9453 40.98 38.75C40.98 37.6211 41.9097 36.625 43.105 36.625C44.2339 36.625 45.23 37.6211 45.23 38.75C45.23 39.9453 44.2339 40.875 43.105 40.875ZM50.5425 60C47.5542 60 45.23 57.6758 45.23 54.6875C45.23 51.7656 47.5542 49.375 50.5425 49.375C53.4644 49.375 55.855 51.7656 55.855 54.6875C55.855 57.6758 53.4644 60 50.5425 60ZM66.48 66.375C65.2847 66.375 64.355 65.4453 64.355 64.25C64.355 63.1211 65.2847 62.125 66.48 62.125C67.6089 62.125 68.605 63.1211 68.605 64.25C68.605 65.4453 67.6089 66.375 66.48 66.375Z" fill="#716B95"/>
</g>
</svg>
