<svg width="16" height="16" viewBox="0 0 16 16" fill="none" xmlns="http://www.w3.org/2000/svg">
<g id="facebook.svg" clip-path="url(#clip0_4_592)">
<path id="Vector" d="M13.3546 1.56055H2.30552C1.458 1.56055 0.798828 2.25111 0.798828 3.06724V14.1163C0.798828 14.9639 1.458 15.623 2.30552 15.623H6.60589V10.8518H4.62835V8.5918H6.60589V6.89676C6.60589 4.95061 7.7673 3.85198 9.52511 3.85198C10.404 3.85198 11.283 4.00893 11.283 4.00893V5.92369H10.3098C9.33677 5.92369 9.02288 6.52009 9.02288 7.14788V8.5918H11.1888L10.8435 10.8518H9.02288V15.623H13.3546C14.1708 15.623 14.8613 14.9639 14.8613 14.1163V3.06724C14.8613 2.25111 14.1708 1.56055 13.3546 1.56055Z" fill="white"/>
</g>
<defs>
<clipPath id="clip0_4_592">
<rect width="15" height="15" fill="white" transform="translate(0.330078 0.689941)"/>
</clipPath>
</defs>
</svg>
