<svg width="16" height="16" viewBox="0 0 16 16" fill="none" xmlns="http://www.w3.org/2000/svg">
<g id="linkedin.svg" clip-path="url(#clip0_4_595)">
<path id="Vector" d="M14.4069 1.56055H2.32195C1.78833 1.56055 1.34888 2.03139 1.34888 2.5964V14.6186C1.34888 15.1835 1.78833 15.623 2.32195 15.623H14.4069C14.9405 15.623 15.4114 15.1835 15.4114 14.6186V2.5964C15.4114 2.03139 14.9405 1.56055 14.4069 1.56055ZM5.58646 13.6141H3.51475V6.92816H5.58646V13.6141ZM4.55061 5.98647C3.86004 5.98647 3.32641 5.45284 3.32641 4.79367C3.32641 4.13448 3.86004 3.56948 4.55061 3.56948C5.20979 3.56948 5.74341 4.13448 5.74341 4.79367C5.74341 5.45284 5.20979 5.98647 4.55061 5.98647ZM13.4024 13.6141H11.2994V10.3496C11.2994 9.59626 11.2994 8.5918 10.2321 8.5918C9.13347 8.5918 8.97653 9.43932 8.97653 10.3182V13.6141H6.90482V6.92816H8.88236V7.83845H8.91375C9.19626 7.30483 9.88682 6.73981 10.8913 6.73981C12.9943 6.73981 13.4024 8.15234 13.4024 9.94155V13.6141Z" fill="white"/>
</g>
<defs>
<clipPath id="clip0_4_595">
<rect width="15" height="15" fill="white" transform="translate(0.880127 0.689941)"/>
</clipPath>
</defs>
</svg>
