<svg width="101" height="101" viewBox="0 0 101 101" fill="none" xmlns="http://www.w3.org/2000/svg">
<g id="feature-star.svg">
<path id="Vector" d="M49.23 95.79C74.0828 95.79 94.23 75.6429 94.23 50.79C94.23 25.9372 74.0828 5.79004 49.23 5.79004C24.3772 5.79004 4.22998 25.9372 4.22998 50.79C4.22998 75.6429 24.3772 95.79 49.23 95.79Z" fill="white"/>
<path id="Vector_2" d="M64.6674 46.4619L54.9721 45.0673L50.5893 36.2353C49.8588 34.708 47.601 34.6416 46.8041 36.2353L42.4877 45.0673L32.726 46.4619C30.9994 46.7275 30.3354 48.8525 31.5971 50.1142L38.5697 56.9541L36.9096 66.583C36.644 68.3095 38.5033 69.6377 40.0307 68.8408L48.7299 64.2588L57.3627 68.8408C58.8901 69.6377 60.7494 68.3095 60.4838 66.583L58.8237 56.9541L65.7963 50.1142C67.058 48.8525 66.394 46.7275 64.6674 46.4619ZM56.4994 56.1572L58.3588 66.915L48.7299 61.8681L39.0346 66.915L40.894 56.1572L33.058 48.5869L43.8822 46.9931L48.7299 37.165L53.5111 46.9931L64.3354 48.5869L56.4994 56.1572Z" fill="#716B95"/>
</g>
</svg>
