<svg width="101" height="101" viewBox="0 0 101 101" fill="none" xmlns="http://www.w3.org/2000/svg">
<g id="feature-target.svg">
<path id="Vector" d="M49.73 95.25C74.5828 95.25 94.73 75.1028 94.73 50.25C94.73 25.3972 74.5828 5.25 49.73 5.25C24.8772 5.25 4.72998 25.3972 4.72998 50.25C4.72998 75.1028 24.8772 95.25 49.73 95.25Z" fill="white"/>
<path id="Vector_2" d="M53.0152 41.0742L54.6089 44.6602L48.4331 50.7696C48.0347 51.1681 48.0347 51.8985 48.4331 52.297C48.6323 52.4962 48.898 52.5625 49.1636 52.5625C49.4956 52.5625 49.7612 52.4962 49.9605 52.297L56.0698 46.1212L59.6558 47.7149C59.7886 47.7813 59.9214 47.7812 60.0542 47.7812C60.4527 47.7812 60.7847 47.6485 61.0503 47.3829L65.2339 43.1992C65.9644 42.4688 65.6988 41.2734 64.7027 40.9414L61.0503 39.6797L59.7886 36.0274C59.5894 35.4298 59.0581 35.0312 58.5269 35.0312C58.1948 35.0312 57.7964 35.1642 57.5308 35.4962L53.3472 39.6797C53.0816 39.9453 52.8823 40.2773 52.8823 40.6758C52.8823 40.8087 52.9488 40.9414 53.0152 41.0742ZM58.1948 37.8204L58.9917 40.3438L59.3238 41.4062L60.3862 41.7383L62.9097 42.5352L59.9214 45.5234L56.6675 44.0625L55.2066 40.8087L58.1948 37.8204ZM64.9019 46.5859L63.1753 48.3125C63.3745 49.3087 63.5738 50.4375 63.5738 51.5C63.5738 59.4688 57.1323 65.8439 49.23 65.8439C41.2612 65.8439 34.8862 59.4688 34.8862 51.5C34.8862 43.5977 41.2612 37.1562 49.23 37.1562C50.2925 37.1562 51.4214 37.3555 52.4175 37.5547L54.1441 35.8281C52.6167 35.3633 50.9566 35.0977 49.23 35.0977V35.0312C40.1323 35.0312 32.7612 42.4688 32.7612 51.5C32.7612 60.5977 40.1323 67.9689 49.23 67.9689C58.2612 67.9689 65.6988 60.5977 65.6988 51.5C65.6988 49.7734 65.3667 48.1133 64.9019 46.5859ZM50.9566 41.7383C50.8902 41.4727 50.8238 41.1407 50.8238 40.8087C50.2925 40.7423 49.7612 40.6095 49.23 40.6095C43.187 40.6095 38.3394 45.5234 38.3394 51.5C38.3394 57.543 43.187 62.3906 49.23 62.3906C55.2066 62.3906 60.1206 57.543 60.1206 51.5C60.1206 50.9688 59.9878 50.4375 59.9214 49.9062C59.5894 49.9062 59.2573 49.8398 58.9917 49.7734C58.8589 49.707 59.0581 49.7734 57.5972 49.1758C57.7964 49.9062 57.9956 50.7031 57.9956 51.5C57.9956 56.3477 54.0112 60.2656 49.23 60.2656C44.3823 60.2656 40.4644 56.3477 40.4644 51.5C40.4644 46.7188 44.3823 42.7345 49.23 42.7345C50.0269 42.7345 50.8238 42.9337 51.5542 43.1329C50.9566 41.672 51.023 41.8712 50.9566 41.7383ZM49.23 46.1875C46.2417 46.1875 43.9175 48.5781 43.9175 51.5C43.9175 54.4883 46.2417 56.8125 49.23 56.8125C52.1519 56.8125 54.5425 54.4883 54.5425 51.5C54.5425 51.3008 54.4761 51.0352 54.4097 50.7696L51.4214 53.7579C50.8902 54.3556 50.0933 54.6875 49.23 54.6875C47.437 54.6875 46.0425 53.293 46.0425 51.5C46.0425 50.6367 46.3745 49.8399 46.9722 49.3087L49.9605 46.3204C49.6948 46.254 49.4292 46.1875 49.23 46.1875Z" fill="#716B95"/>
</g>
</svg>
