<svg width="16" height="14" viewBox="0 0 16 14" fill="none" xmlns="http://www.w3.org/2000/svg">
<g id="twitter.svg" clip-path="url(#clip0_4_589)">
<path id="Vector" d="M14.2273 4.01806C14.8132 3.57861 15.3405 3.05127 15.7507 2.43603C15.2234 2.67041 14.6081 2.84619 13.9929 2.90478C14.6374 2.52392 15.1062 1.93799 15.3405 1.20557C14.7546 1.55713 14.0808 1.8208 13.407 1.96728C12.821 1.35205 12.03 1.00049 11.1511 1.00049C9.45191 1.00049 8.07495 2.37744 8.07495 4.07666C8.07495 4.31103 8.10425 4.54541 8.16284 4.77978C5.61401 4.6333 3.32886 3.40283 1.80542 1.55713C1.54175 1.99658 1.39526 2.52392 1.39526 3.10986C1.39526 4.16455 1.92261 5.10205 2.77222 5.65869C2.27417 5.62939 1.77612 5.51221 1.36597 5.27783V5.30713C1.36597 6.80127 2.42065 8.03174 3.82691 8.32471C3.59253 8.3833 3.29956 8.44189 3.03589 8.44189C2.83081 8.44189 2.65503 8.4126 2.44995 8.3833C2.83081 9.61377 3.97339 10.4927 5.32105 10.522C4.26636 11.3422 2.948 11.8403 1.51245 11.8403C1.24878 11.8403 1.0144 11.811 0.780029 11.7817C2.12769 12.6606 3.73901 13.1587 5.49683 13.1587C11.1511 13.1587 14.2273 8.50049 14.2273 4.42822C14.2273 4.28174 14.2273 4.16455 14.2273 4.01806Z" fill="white"/>
</g>
<defs>
<clipPath id="clip0_4_589">
<rect width="15" height="13" fill="white" transform="translate(0.780029 0.689941)"/>
</clipPath>
</defs>
</svg>
